<svg width="226" height="48" viewBox="0 0 226 48" fill="none" xmlns="http://www.w3.org/2000/svg">
<g clip-path="url(#clip0_57_15848)">
<path d="M1.11001 34.7802C28.36 45.2302 59.28 48.1102 88.24 47.3102C117.89 46.4902 147.3 40.9502 175.25 31.0302C182.81 28.3502 190.27 25.3602 197.58 22.0602C201.43 20.3302 205.23 18.5002 208.99 16.5902C212.81 14.6502 217.09 12.9702 220.03 9.7702C223.03 6.5002 220.32 1.2202 215.83 2.1602C209.39 3.5202 203.21 8.3202 197.31 11.2202C190.7 14.4702 183.95 17.4602 177.09 20.1602C163.94 25.3202 150.36 29.4002 136.58 32.4902C108.68 38.7402 79.88 40.9702 51.37 38.7802C34.65 37.5002 18.49 34.6202 2.02001 31.6702C1.26362e-05 31.3102 -0.859987 34.0202 1.11001 34.7802Z" fill="#D1B4E3"/>
<path d="M194.8 5.75011C199.59 7.39011 204.83 7.67011 209.82 8.35011C212.13 8.67011 214.44 8.98011 216.75 9.29011C217.53 9.39011 218.59 9.74011 219.38 9.65011C219.84 9.60011 221.2 10.2701 219.98 9.59011C219.36 8.45011 218.74 7.31011 218.12 6.17011C218.18 7.44011 214.46 10.7401 213.65 11.7201C212.17 13.5101 210.7 15.3001 209.22 17.0901C206.73 20.1101 203.46 22.5901 203.7 26.7201C203.81 28.4901 205.11 29.4901 206.83 29.2501C210.9 28.7001 212.78 24.9101 215.25 21.9101C217.78 18.8401 220.31 15.7701 222.83 12.6901C225.43 9.51011 228.11 4.25011 222.57 2.40011C218.96 1.20011 214.41 1.23011 210.67 0.870107C205.44 0.370107 200.18 -0.379893 194.94 0.230107C191.92 0.580107 192.38 4.92011 194.8 5.75011Z" fill="#D1B4E3"/>
</g>
<defs>
<clipPath id="clip0_57_15848">
<rect width="225.81" height="47.43" fill="white"/>
</clipPath>
</defs>
</svg>
