<svg width="17" height="17" viewBox="0 0 17 17" fill="none" xmlns="http://www.w3.org/2000/svg">
<path d="M10.2741 3.11269C10.3399 3.11116 10.4053 3.12264 10.4666 3.14645C10.528 3.17027 10.584 3.20596 10.6315 3.25147L15.2094 7.67223C15.2571 7.71789 15.2952 7.77253 15.3217 7.83301C15.3481 7.89349 15.3623 7.9586 15.3635 8.0246C15.3646 8.09059 15.3527 8.15616 15.3284 8.21753C15.3041 8.27889 15.2679 8.33483 15.2218 8.38212L10.801 12.96C10.7552 13.0074 10.7006 13.0454 10.6401 13.0716C10.5796 13.0979 10.5146 13.1121 10.4487 13.1132C10.3827 13.1144 10.3172 13.1025 10.2559 13.0784C10.1946 13.0542 10.1386 13.0182 10.0912 12.9724C10.0437 12.9266 10.0058 12.8719 9.9795 12.8114C9.95321 12.751 9.93909 12.6859 9.93794 12.62C9.93678 12.5541 9.94863 12.4886 9.97279 12.4272C9.99695 12.3659 10.033 12.3099 10.0788 12.2625L14.1558 8.04568L9.93404 3.97376C9.88638 3.9281 9.84822 3.87346 9.82178 3.81298C9.79533 3.75251 9.78112 3.68739 9.77997 3.6214C9.77882 3.5554 9.79074 3.48983 9.81506 3.42846C9.83938 3.3671 9.8756 3.31116 9.92165 3.26387C9.96755 3.21672 10.0223 3.17909 10.0828 3.15315C10.1433 3.12721 10.2083 3.11346 10.2741 3.11269Z" fill="#030303"/>
<path d="M2.85377 7.74278L14.8519 7.53329C14.9845 7.53098 15.1126 7.58143 15.208 7.67355C15.3034 7.76566 15.3583 7.8919 15.3606 8.02449C15.3629 8.15708 15.3125 8.28516 15.2203 8.38055C15.1282 8.47594 15.002 8.53083 14.8694 8.53314L2.87123 8.74262C2.73864 8.74494 2.61056 8.69449 2.51517 8.60237C2.41978 8.51026 2.36489 8.38402 2.36258 8.25143C2.36026 8.11884 2.41071 7.99076 2.50283 7.89537C2.59495 7.79998 2.72118 7.74509 2.85377 7.74278Z" fill="#030303"/>
</svg>
