<svg width="17" height="17" viewBox="0 0 17 17" fill="none" xmlns="http://www.w3.org/2000/svg">
<path d="M10.2741 3.11245C10.3399 3.11092 10.4053 3.12239 10.4666 3.14621C10.528 3.17002 10.584 3.20571 10.6315 3.25123L15.2094 7.67199C15.2571 7.71764 15.2952 7.77229 15.3217 7.83276C15.3481 7.89324 15.3623 7.95836 15.3635 8.02435C15.3646 8.09035 15.3527 8.15592 15.3284 8.21728C15.3041 8.27865 15.2679 8.33459 15.2218 8.38188L10.801 12.9597C10.7552 13.0072 10.7006 13.0451 10.6401 13.0714C10.5796 13.0977 10.5146 13.1118 10.4487 13.113C10.3827 13.1141 10.3172 13.1023 10.2559 13.0781C10.1946 13.054 10.1386 13.0179 10.0912 12.9721C10.0437 12.9263 10.0058 12.8717 9.9795 12.8112C9.95321 12.7507 9.93909 12.6857 9.93794 12.6198C9.93678 12.5538 9.94863 12.4883 9.97279 12.427C9.99695 12.3657 10.033 12.3097 10.0788 12.2623L14.1558 8.04544L9.93404 3.97351C9.88638 3.92786 9.84822 3.87322 9.82178 3.81274C9.79533 3.75226 9.78112 3.68715 9.77997 3.62115C9.77882 3.55516 9.79074 3.48958 9.81506 3.42822C9.83938 3.36686 9.8756 3.31092 9.92165 3.26362C9.96755 3.21647 10.0223 3.17885 10.0828 3.15291C10.1433 3.12697 10.2083 3.11322 10.2741 3.11245Z" fill="white"/>
<path d="M2.85377 7.74278L14.8519 7.53329C14.9845 7.53098 15.1126 7.58143 15.208 7.67355C15.3034 7.76566 15.3583 7.8919 15.3606 8.02449C15.3629 8.15708 15.3125 8.28516 15.2203 8.38055C15.1282 8.47594 15.002 8.53083 14.8694 8.53314L2.87123 8.74262C2.73864 8.74494 2.61056 8.69449 2.51517 8.60237C2.41978 8.51026 2.36489 8.38402 2.36258 8.25143C2.36026 8.11884 2.41071 7.99076 2.50283 7.89537C2.59495 7.79998 2.72118 7.74509 2.85377 7.74278Z" fill="white"/>
</svg>
