<svg width="80" height="80" viewBox="0 0 80 80" fill="none" xmlns="http://www.w3.org/2000/svg">
<path d="M26.6667 43.3332H53.3333V36.6665H26.6667V43.3332ZM26.6667 29.9998H53.3333V23.3332H26.6667V29.9998ZM43.3333 56.6665H53.3333V49.9998H43.3333V56.6665ZM63.7 6.6665C61.6067 6.68622 59.5701 7.34956 57.8667 8.5665C57.2755 9.03985 56.5407 9.29775 55.7833 9.29775C55.026 9.29775 54.2912 9.03985 53.7 8.5665C52 7.34557 49.9597 6.68883 47.8667 6.68883C45.7736 6.68883 43.7334 7.34557 42.0333 8.5665C41.4446 9.01454 40.738 9.28099 40 9.33317C39.2738 9.30029 38.5754 9.04421 38 8.59984C36.2975 7.35243 34.2439 6.67569 32.1333 6.6665C30.0379 6.67301 27.9974 7.33763 26.3 8.5665C25.7088 9.03985 24.974 9.29775 24.2167 9.29775C23.4593 9.29775 22.7246 9.03985 22.1333 8.5665C20.4299 7.34956 18.3934 6.68622 16.3 6.6665H13.3333V73.3332H16.3C18.3934 73.3135 20.4299 72.6501 22.1333 71.4332C22.7246 70.9598 23.4593 70.7019 24.2167 70.7019C24.974 70.7019 25.7088 70.9598 26.3 71.4332C28 72.6541 30.0403 73.3108 32.1333 73.3108C34.2264 73.3108 36.2666 72.6541 37.9667 71.4332C38.5554 70.9851 39.2621 70.7187 40 70.6665C40.7262 70.6994 41.4247 70.9555 42 71.3998C43.6841 72.634 45.7123 73.31 47.8 73.3332C49.8955 73.3267 51.936 72.662 53.6333 71.4332C54.2246 70.9598 54.9593 70.7019 55.7167 70.7019C56.474 70.7019 57.2088 70.9598 57.8 71.4332C59.5034 72.6501 61.54 73.3135 63.6333 73.3332H66.6667V6.6665H63.7ZM60 64.9998C58.3989 64.2596 56.6306 63.9561 54.8743 64.12C53.1181 64.2839 51.4364 64.9095 50 65.9332C49.4031 66.3846 48.6813 66.6407 47.9333 66.6665C47.2044 66.6474 46.5019 66.3898 45.9333 65.9332C44.2124 64.6723 42.1334 63.9949 40 63.9998C37.8934 64.0332 35.847 64.7076 34.1333 65.9332C33.5449 66.3982 32.8167 66.6512 32.0667 66.6512C31.3166 66.6512 30.5885 66.3982 30 65.9332C28.5636 64.9095 26.8819 64.2839 25.1257 64.12C23.3694 63.9561 21.6011 64.2596 20 64.9998V14.9998C21.3105 15.635 22.7439 15.9763 24.2 15.9998C26.2837 15.9531 28.305 15.2793 30 14.0665C30.6153 13.6019 31.3624 13.3451 32.1333 13.3332C32.8623 13.3523 33.5648 13.6099 34.1333 14.0665C35.8359 15.3139 37.8894 15.9907 40 15.9998C42.1066 15.9665 44.153 15.2921 45.8667 14.0665C46.4552 13.6015 47.1833 13.3485 47.9333 13.3485C48.6834 13.3485 49.4115 13.6015 50 14.0665C51.7137 15.2921 53.7601 15.9665 55.8667 15.9998C57.3002 15.9667 58.7099 15.6257 60 14.9998V64.9998Z" fill="white"/>
</svg>
