<svg width="21" height="16" viewBox="0 0 21 16" fill="none" xmlns="http://www.w3.org/2000/svg">
<path d="M0 1C0 0.44771 0.44772 0 1 0H20C20.5523 0 21 0.44771 21 1C21 1.55229 20.5523 2 20 2H1C0.44772 2 0 1.55229 0 1Z" fill="white"/>
<path d="M0 7.99961C0 7.44731 0.44772 6.99951 1 6.99951L12 6.99981C12.5523 6.99981 13 7.44751 13 7.99981C13 8.55211 12.5523 8.99981 12 8.99981L1 8.99961C0.44772 8.99961 0 8.55181 0 7.99961Z" fill="white"/>
<path d="M1 14C0.44772 14 0 14.4477 0 15C0 15.5522 0.44772 15.9999 1 15.9999H18C18.5523 15.9999 19 15.5522 19 15C19 14.4477 18.5523 14 18 14H1Z" fill="white"/>
</svg>
