<svg width="45" height="45" viewBox="0 0 45 45" fill="none" xmlns="http://www.w3.org/2000/svg">
<g clip-path="url(#clip0_57_14215)">
<path d="M22.5 7.5C9.75 7.5 -5.78758e-09 12.375 -1.3356e-08 18.75L-2.44859e-08 28.125C-3.20543e-08 34.5 9.75 39.375 22.5 39.375C35.25 39.375 45 34.5 45 28.125L45 18.75C45 12.375 35.25 7.5 22.5 7.5ZM22.5 11.25C33.1875 11.25 41.25 15.1875 41.25 18.75C41.25 22.3125 33.1875 26.25 22.5 26.25C11.8125 26.25 3.75 22.3125 3.75 18.75C3.75 15.1875 11.8125 11.25 22.5 11.25ZM35.625 33.375L35.625 30L31.875 30L31.875 34.5C29.625 35.0625 27.1875 35.4375 24.375 35.625L24.375 31.875L20.625 31.875L20.625 35.625C17.8125 35.4375 15.375 35.0625 13.125 34.5L13.125 30L9.375 30L9.375 33.375C5.8125 31.875 3.75 30 3.75 28.125L3.75 25.125C7.6875 28.125 14.4375 30 22.5 30C30.5625 30 37.3125 28.125 41.25 25.125L41.25 28.125C41.25 30 39.1875 31.875 35.625 33.375Z" fill="white"/>
<path d="M22.5 16.875C26.8125 16.875 30 18.375 31.6875 19.5L34.3125 16.875C32.4375 15.5625 28.3125 13.125 22.5 13.125C16.5 13.125 12.5625 15.375 10.6875 16.875L13.3125 19.5C15 18.375 18 16.875 22.5 16.875Z" fill="white"/>
</g>
<defs>
<clipPath id="clip0_57_14215">
<rect width="45" height="45" fill="white"/>
</clipPath>
</defs>
</svg>
