<svg width="45" height="45" viewBox="0 0 45 45" fill="none" xmlns="http://www.w3.org/2000/svg">
<path d="M10.6331 7.98185C17.9981 1.94622 28.8825 2.36622 35.7581 9.24185C43.08 16.5637 43.08 28.4362 35.7581 35.7581C28.4362 43.08 16.5637 43.08 9.24187 35.7581C6.99493 33.5142 5.35514 30.7361 4.47648 27.6846C3.59783 24.6331 3.50914 21.4083 4.21875 18.3131L4.36312 17.7262L7.98937 18.6825C7.09039 22.0992 7.4263 25.7236 8.93789 28.9169C10.4495 32.1103 13.0397 34.6676 16.2522 36.1381C19.4646 37.6087 23.093 37.8981 26.498 36.9554C29.9029 36.0127 32.8658 33.8984 34.8645 30.9851C36.8633 28.0718 37.7695 24.5465 37.4236 21.0305C37.0776 17.5144 35.5017 14.2333 32.9735 11.7654C30.4453 9.29752 27.1271 7.80122 23.6038 7.54022C20.0804 7.27922 16.578 8.27027 13.7137 10.3387L13.2994 10.65L15.2062 12.5568L6.58875 14.5443L8.57625 5.92685L10.6331 7.98185ZM24.375 11.25L24.375 15L29.0625 15L29.0625 18.75L18.75 18.75C18.5157 18.7495 18.2898 18.8368 18.1167 18.9947C17.9435 19.1525 17.8358 19.3694 17.8146 19.6028C17.7934 19.8361 17.8604 20.0689 18.0023 20.2553C18.1442 20.4417 18.3507 20.5682 18.5812 20.61L18.75 20.625L26.25 20.625C27.4932 20.625 28.6855 21.1188 29.5646 21.9979C30.4436 22.877 30.9375 24.0693 30.9375 25.3125C30.9375 26.5557 30.4436 27.748 29.5646 28.627C28.6855 29.5061 27.4932 30 26.25 30L24.375 30L24.375 33.75L20.625 33.75L20.625 30L15.9375 30L15.9375 26.25L26.25 26.25C26.4843 26.2504 26.7102 26.1631 26.8833 26.0053C27.0565 25.8474 27.1642 25.6305 27.1854 25.3972C27.2066 25.1639 27.1396 24.9311 26.9977 24.7447C26.8558 24.5582 26.6493 24.4317 26.4187 24.39L26.25 24.375L18.75 24.375C17.5068 24.375 16.3145 23.8811 15.4354 23.002C14.5564 22.123 14.0625 20.9307 14.0625 19.6875C14.0625 18.4443 14.5564 17.252 15.4354 16.3729C16.3145 15.4938 17.5068 15 18.75 15L20.625 15L20.625 11.25L24.375 11.25Z" fill="white"/>
</svg>
