<svg width="45" height="45" viewBox="0 0 45 45" fill="none" xmlns="http://www.w3.org/2000/svg">
<path d="M15 24.375H30V20.625H15V24.375ZM15 16.875H30V13.125H15V16.875ZM24.375 31.875H30V28.125H24.375V31.875ZM35.8313 3.75C34.6537 3.76109 33.5082 4.13422 32.55 4.81875C32.2174 5.08501 31.8041 5.23008 31.3781 5.23008C30.9521 5.23008 30.5388 5.08501 30.2063 4.81875C29.25 4.13197 28.1023 3.76256 26.925 3.76256C25.7477 3.76256 24.6 4.13197 23.6437 4.81875C23.3126 5.07077 22.9151 5.22065 22.5 5.25C22.0915 5.23151 21.6986 5.08746 21.375 4.8375C20.4173 4.13583 19.2622 3.75517 18.075 3.75C16.8963 3.75366 15.7485 4.12751 14.7937 4.81875C14.4612 5.08501 14.0479 5.23008 13.6219 5.23008C13.1959 5.23008 12.7826 5.08501 12.45 4.81875C11.4918 4.13422 10.3463 3.76109 9.16875 3.75H7.5V41.25H9.16875C10.3463 41.2389 11.4918 40.8658 12.45 40.1813C12.7826 39.915 13.1959 39.7699 13.6219 39.7699C14.0479 39.7699 14.4612 39.915 14.7937 40.1813C15.75 40.868 16.8977 41.2374 18.075 41.2374C19.2523 41.2374 20.4 40.868 21.3563 40.1813C21.6874 39.9292 22.0849 39.7794 22.5 39.75C22.9085 39.7685 23.3014 39.9125 23.625 40.1625C24.5723 40.8567 25.7131 41.237 26.8875 41.25C28.0662 41.2463 29.214 40.8725 30.1688 40.1813C30.5013 39.915 30.9146 39.7699 31.3406 39.7699C31.7666 39.7699 32.1799 39.915 32.5125 40.1813C33.4707 40.8658 34.6162 41.2389 35.7938 41.25H37.5V3.75H35.8313ZM33.75 36.5625C32.8494 36.1461 31.8547 35.9754 30.8668 36.0676C29.8789 36.1598 28.933 36.5117 28.125 37.0875C27.7892 37.3414 27.3832 37.4855 26.9625 37.5C26.5525 37.4893 26.1573 37.3443 25.8375 37.0875C24.8695 36.3783 23.7 35.9972 22.5 36C21.315 36.0187 20.1639 36.3981 19.2 37.0875C18.869 37.3491 18.4594 37.4914 18.0375 37.4914C17.6156 37.4914 17.206 37.3491 16.875 37.0875C16.067 36.5117 15.1211 36.1598 14.1332 36.0676C13.1453 35.9754 12.1506 36.1461 11.25 36.5625V8.4375C11.9871 8.79479 12.7934 8.98676 13.6125 9C14.7846 8.97371 15.9215 8.59472 16.875 7.9125C17.2211 7.65116 17.6414 7.5067 18.075 7.5C18.485 7.51075 18.8802 7.65565 19.2 7.9125C20.1577 8.61417 21.3128 8.99483 22.5 9C23.685 8.98126 24.8361 8.60191 25.8 7.9125C26.131 7.65092 26.5406 7.50863 26.9625 7.50863C27.3844 7.50863 27.794 7.65092 28.125 7.9125C29.0889 8.60191 30.24 8.98126 31.425 9C32.2314 8.98136 33.0243 8.78952 33.75 8.4375V36.5625Z" fill="white"/>
</svg>
