<svg width="115" height="98" viewBox="0 0 115 98" fill="none" xmlns="http://www.w3.org/2000/svg">
<g clip-path="url(#clip0_57_14177)">
<path fill-rule="evenodd" clip-rule="evenodd" d="M43.2999 0.316112C43.5498 0.150566 43.8355 0.0465445 44.1335 0.0126014C44.4775 -0.0278431 44.8259 0.0258508 45.1416 0.167927C45.4573 0.310004 45.7283 0.535112 45.9256 0.81913C46.1228 1.10315 46.2389 1.43537 46.2615 1.78022C46.284 2.12506 46.2121 2.46952 46.0534 2.77669C45.8948 3.08386 45.6554 3.34217 45.3608 3.52394C45.0663 3.70571 44.7278 3.80409 44.3815 3.80854C44.0352 3.81299 43.6943 3.72335 43.3951 3.54922C43.096 3.37508 42.85 3.12301 42.6835 2.82002C41.1466 2.82736 39.6115 2.92233 38.0855 3.10447C15.5787 5.78822 -0.545314 26.2317 2.14409 48.691C3.73967 62.0844 11.6879 73.2169 22.6035 79.4447L22.5962 74.9134C13.7038 69.1075 7.33245 59.564 5.97368 48.2334C5.16295 41.5236 6.20669 34.7203 8.99194 28.5598C11.7772 22.3994 16.1979 17.1165 21.7755 13.2828C21.7347 13.137 21.7057 12.9881 21.6887 12.8376C21.6172 12.2355 21.726 11.6257 22.0016 11.0853C22.2772 10.5449 22.7071 10.0981 23.237 9.80142C23.767 9.50473 24.3731 9.37144 24.9789 9.41839C25.5847 9.46533 26.163 9.69041 26.6407 10.0652C27.1183 10.4399 27.474 10.9476 27.6626 11.524C27.8513 12.1003 27.8645 12.7196 27.7007 13.3035C27.5368 13.8874 27.2032 14.4097 26.742 14.8044C26.2807 15.1992 25.7126 15.4487 25.1094 15.5213C24.6961 15.5706 24.2771 15.5345 23.8785 15.4153C23.4798 15.2962 23.1099 15.0965 22.7918 14.8288C11.997 22.3111 6.25873 35.0001 7.82032 48.0107C9.05573 58.3474 14.6746 67.1047 22.5926 72.6711L22.5848 67.8004C18.1239 64.0331 14.7984 59.0986 12.9858 53.5468C11.1154 47.818 10.9348 41.6734 12.4655 35.8451C13.9962 30.0168 17.1736 24.7504 21.6193 20.6734C26.0649 16.5964 31.5913 13.8806 37.5401 12.8497C37.6616 12.5215 37.8718 12.2333 38.1475 12.0172C38.4231 11.801 38.7535 11.6654 39.1017 11.6253C39.4331 11.5865 39.769 11.6351 40.0757 11.7662C40.3824 11.8973 40.6493 12.1064 40.8498 12.3726C41.0503 12.6388 41.1774 12.9527 41.2183 13.2832C41.2593 13.6137 41.2127 13.9491 41.0832 14.256C40.9537 14.5629 40.7458 14.8305 40.4803 15.0323C40.2148 15.234 39.901 15.3627 39.5701 15.4056C39.2392 15.4485 38.9028 15.4041 38.5944 15.2768C38.2861 15.1495 38.0166 14.9437 37.8128 14.6801C30.3391 15.9812 23.6505 20.0944 19.1263 26.1716C14.602 32.2487 12.587 39.8265 13.4966 47.3426C14.3184 54.2302 17.5481 60.6068 22.6158 65.3514C22.811 64.9795 23.7919 64.7313 24.6137 64.7313C25.2209 64.7313 25.8034 64.8673 25.9026 65.2383L25.8654 65.2136C26.2874 66.029 26.7058 66.8349 27.1214 67.6354C28.0485 69.421 28.9615 71.1795 29.8685 72.9557C30.765 74.711 31.6211 76.3397 32.5076 78.0264C32.9203 78.8115 33.3395 79.6091 33.7725 80.438C35.1606 77.9645 36.5487 75.5281 37.9739 73.0299C39.3992 70.5316 40.9236 67.8479 42.3117 65.3496L42.2869 65.3744C42.3117 65.0776 43.4023 64.7065 44.2823 64.7065C45.1622 64.7065 45.6456 64.9044 45.6456 65.5104L45.6703 88.7613C45.6084 89.0705 44.6913 89.3673 43.8113 89.3673C42.9314 89.3673 42.2869 89.2065 42.2869 88.6624V71.5334C41.942 72.1329 41.5849 72.759 41.222 73.3954C40.3718 74.8859 39.4894 76.4331 38.6556 77.8284L34.7268 84.5687C34.4542 84.8655 33.9088 85.0758 33.4379 85.0758C32.9669 85.0758 32.6571 85.0016 32.5455 84.9026L25.977 72.9309V88.6253C25.977 89.0705 24.9483 89.3673 24.1055 89.3673C23.2628 89.3673 22.6183 89.2065 22.6183 88.6624L22.6069 81.5545C10.7246 75.1534 2.01802 63.28 0.297446 48.9137C-2.5035 25.4402 14.3518 4.06914 37.8624 1.27409C39.4662 1.07833 41.0801 0.975099 42.6959 0.9649C42.8429 0.704008 43.0499 0.481658 43.2999 0.316112ZM24.6012 11.2546C24.8421 11.2269 25.0858 11.2711 25.3016 11.3816C25.5173 11.4921 25.6954 11.6638 25.8134 11.8753C25.9314 12.0867 25.9839 12.3282 25.9644 12.5694C25.9449 12.8106 25.8542 13.0407 25.7038 13.2304C25.5533 13.4202 25.3499 13.5613 25.1192 13.6358C24.8885 13.7103 24.6409 13.7149 24.4075 13.6491C24.1742 13.5832 23.9656 13.4499 23.8082 13.2658C23.6508 13.0818 23.5515 12.8553 23.523 12.615C23.488 12.2924 23.5814 11.969 23.7831 11.7145C23.9848 11.46 24.2786 11.2948 24.6012 11.2546ZM31.269 28.6182C25.568 28.6182 22.1969 30.2012 22.1969 30.2012V61.6888C22.9544 61.8849 23.7321 61.9928 24.5145 62.0104C25.2747 62.0248 26.0323 61.9162 26.7577 61.6888V51.0899C27.8394 51.3036 28.9394 51.4113 30.042 51.4115C36.9205 51.4115 41.6176 46.316 41.6176 39.0811C41.6176 32.3903 37.8748 28.6182 31.269 28.6182ZM29.7198 46.9963C28.7338 46.9856 27.7523 46.8611 26.7949 46.6252L26.6214 33.2065C26.6214 33.2065 28.8027 32.5263 31.0831 32.5263C34.2311 32.5263 36.7841 34.3938 36.7841 39.0811C36.7841 45.7595 32.7686 46.9963 29.7198 46.9963ZM47.5418 36.5705C47.5418 36.5705 50.0453 33.3055 54.2839 33.3055C57.2955 33.3055 59.3033 35.0246 59.3033 37.4857V37.8939C59.3033 41.6288 56.3908 43.6324 53.1932 45.7225L53.1459 45.7547C49.2918 48.3802 45.0755 51.2526 45.0755 57.7313C45.0755 60.0069 45.2118 61.825 47.2195 61.8744H63.7278C64.1368 61.7384 64.4962 60.4645 64.4962 59.5988C64.4962 58.7331 64.1863 57.8674 63.641 57.5458C63.641 57.5458 58.758 57.6818 54.7053 57.6818C52.5612 57.6818 50.4171 57.6818 49.5991 57.6324C49.8222 53.2295 53.1065 50.6324 56.4775 48.3568L56.6148 48.2611C60.3497 45.6591 64.0872 43.0554 64.0872 37.3497C64.0872 29.0635 56.7998 29.0635 53.974 29.0635C50.0081 29.0635 47.1328 31.1659 45.2118 33.12C45.0935 33.2198 44.9997 33.3451 44.9374 33.4866C44.8751 33.6281 44.846 33.7819 44.8524 33.9363C44.8524 35.0246 47.1824 36.5705 47.5418 36.5705ZM68.7844 30.2012C68.7844 30.2012 72.1554 28.6182 77.8565 28.6182C84.4746 28.6182 88.2051 32.3903 88.2051 39.0811C88.2051 46.316 83.5079 51.4115 76.6295 51.4115C75.5269 51.41 74.427 51.3023 73.3452 51.0899V61.6888C72.624 61.9162 71.8705 62.0248 71.1144 62.0104C70.3279 61.9922 69.5462 61.8844 68.7844 61.6888V30.2012ZM73.3948 46.6252C74.3479 46.8614 75.3253 46.9859 76.3073 46.9963C79.3685 46.9963 83.3716 45.7595 83.3716 39.0811C83.3716 34.3938 80.8185 32.5263 77.683 32.5263C75.4025 32.5263 73.2089 33.2065 73.2089 33.2065L73.3948 46.6252ZM49.786 67.5464C49.7133 67.7161 49.6751 67.8985 49.6735 68.0831V68.8252C49.6751 69.0103 49.7132 69.1934 49.7857 69.3638C49.8582 69.5342 49.9637 69.6887 50.096 69.8185C50.2284 69.9483 50.385 70.0508 50.5571 70.1201C50.7291 70.1895 50.9132 70.2243 51.0987 70.2227H51.8423C52.0267 70.2244 52.2096 70.1893 52.3802 70.1197C52.5509 70.05 52.7059 69.9472 52.8363 69.8171C52.9667 69.687 53.0698 69.5322 53.1396 69.3619C53.2094 69.1916 53.2445 69.0092 53.2428 68.8252V68.0831C53.2445 67.8997 53.2093 67.7178 53.1394 67.5482C53.0695 67.3786 52.9662 67.2246 52.8356 67.0955C52.7051 66.9664 52.5499 66.8647 52.3793 66.7964C52.2087 66.7281 52.0261 66.6947 51.8423 66.698H51.0987C50.9138 66.6947 50.73 66.728 50.558 66.796C50.3861 66.864 50.2293 66.9653 50.0968 67.0941C49.9643 67.2229 49.8586 67.3766 49.786 67.5464ZM51.3714 89.3058C52.1894 89.3058 53.1065 88.9718 53.1065 88.3287L53.0693 72.5478C52.9949 71.9789 52.6107 71.7686 51.706 71.7686C50.8013 71.7686 49.6735 72.3128 49.6735 72.622L49.7106 88.4648C49.7106 88.9966 50.5534 89.3058 51.3714 89.3058ZM60.0221 88.7988C59.8114 89.0709 59.1049 89.2688 58.3985 89.2688C57.4814 89.2688 56.6262 88.9967 56.6262 88.5885L56.6634 73.055L56.6694 73.048C56.8132 72.878 57.2913 72.3129 58.7331 72.3129C60.1956 72.3129 60.084 73.191 60.084 73.191V74.3412C61.1747 72.9931 62.6371 72.0161 64.868 72.0161C68.1275 72.0161 71.8207 73.3023 71.8207 81.6504L71.7588 88.5885C71.7588 89.0956 71.0771 89.2688 70.2592 89.2688C69.4412 89.2688 68.3258 88.9967 68.3258 88.5885V80.5002C68.3258 77.631 67.3467 75.4914 64.459 75.4914C63.2072 75.4914 61.1375 76.1345 60.084 77.7299V88.8606L60.0221 88.7988ZM75.3651 67.5491C75.2932 67.718 75.2554 67.8994 75.2538 68.083V68.825C75.257 69.1968 75.4073 69.5522 75.672 69.814C75.9366 70.0757 76.2941 70.2226 76.6667 70.2225H77.4227C77.6065 70.2242 77.7887 70.1891 77.9587 70.1193C78.1287 70.0495 78.283 69.9465 78.4123 69.8162C78.5417 69.6859 78.6437 69.5311 78.7121 69.3609C78.7805 69.1906 78.8141 69.0084 78.8107 68.825V68.083C78.8124 67.9006 78.7776 67.7197 78.7085 67.5509C78.6393 67.3821 78.5371 67.2288 78.4079 67.0998C78.2786 66.9709 78.125 66.8689 77.9558 66.7999C77.7866 66.7309 77.6054 66.6962 77.4227 66.6978H76.6667C76.4827 66.6962 76.3003 66.7307 76.1298 66.7994C75.9592 66.8682 75.8039 66.9698 75.6727 67.0984C75.5415 67.227 75.437 67.3801 75.3651 67.5491ZM76.9393 89.3056C77.7573 89.3056 78.6744 88.9717 78.6744 88.3286L78.6372 72.5476C78.5753 71.9787 77.9928 71.7685 77.2863 71.7685C76.3692 71.7685 75.2538 72.3127 75.2538 72.6218L75.2786 88.4646C75.2786 88.9964 76.1213 89.3056 76.9393 89.3056ZM85.5901 88.7988C85.3918 89.0709 84.6729 89.2688 83.9665 89.2688C83.0494 89.2688 82.2066 88.9967 82.2066 88.5885L82.2314 73.055L82.2373 73.048C82.3812 72.878 82.8592 72.3129 84.3011 72.3129C85.7636 72.3129 85.6644 73.191 85.6644 73.191V74.3412C86.7427 72.9931 88.2051 72.0161 90.4359 72.0161C93.6954 72.0161 97.3887 73.3023 97.3887 81.6504L97.3268 88.5885C97.3268 89.0956 96.6451 89.2688 95.8395 89.2688C95.034 89.2688 93.9061 88.9967 93.9061 88.5885V80.5002C93.9061 77.631 92.9146 75.4914 90.0393 75.4914C88.7752 75.4914 86.7055 76.1345 85.6644 77.7299V88.8606L85.5901 88.7988ZM111.369 73.1659C111.166 73.1713 110.962 73.1589 110.761 73.1288C109.654 72.4011 108.357 72.014 107.031 72.0157C103.325 72.0157 100.376 75.1942 100.376 78.7436C100.376 80.809 101.503 82.6023 102.953 83.9256L100.004 86.4239C100.335 86.9685 100.722 87.4782 101.156 87.9451C99.7311 88.6253 98.2811 90.6535 98.2811 92.6571C98.2811 96.0705 102.718 97.9998 106.647 97.9998C110.761 97.9998 114.789 96.1076 115 92.1871V91.915C115 87.2401 111.567 86.127 107.837 86.127C105.705 86.127 104.924 85.991 104.614 85.892C104.69 85.7745 104.716 85.7652 104.742 85.7561C104.762 85.7489 104.781 85.7418 104.825 85.6818C104.924 85.5458 105.16 85.2737 105.333 85.0758C105.889 85.2064 106.46 85.2646 107.031 85.2489C110.724 85.2489 113.711 82.3302 113.711 78.7436C113.707 78.0845 113.649 77.4269 113.538 76.7772C114.727 75.9362 114.888 74.279 114.888 73.2278C114.888 72.7949 114.789 71.6694 114.789 71.6694C114.789 71.6694 113.029 73.1659 111.369 73.1659ZM101.702 92.0511H101.665C101.635 91.9255 101.622 91.7966 101.627 91.6677C101.627 91.0617 101.937 90.0846 102.891 88.9963C103.734 89.3055 104.689 89.4044 105.668 89.4044H105.668C105.978 89.4044 106.523 89.4044 106.82 89.3673L107.403 89.3426H107.911C110.588 89.3426 111.431 90.0475 111.431 92.0511V92.1871C111.369 93.7701 109.2 94.6235 106.994 94.6235C104.788 94.6235 102.445 93.8073 101.702 92.0511ZM110.885 78.6818C110.885 80.6359 109.225 82.2313 107.192 82.2313C105.197 82.2313 103.536 80.6111 103.536 78.6818C103.536 76.7525 105.16 74.885 107.192 74.885C109.225 74.885 110.885 76.7277 110.885 78.6818Z" fill="url(#paint0_linear_57_14177)"/>
</g>
<defs>
<linearGradient id="paint0_linear_57_14177" x1="123" y1="110.5" x2="7" y2="-6.96918e-07" gradientUnits="userSpaceOnUse">
<stop stop-color="#88D5FF"/>
<stop offset="1" stop-color="#F8C0FF"/>
</linearGradient>
<clipPath id="clip0_57_14177">
<rect width="115" height="98" fill="white"/>
</clipPath>
</defs>
</svg>
