<svg width="45" height="39" viewBox="0 0 45 39" fill="none" xmlns="http://www.w3.org/2000/svg">
<path d="M14.6667 17.3333C18.2506 17.3333 21.1667 14.4173 21.1667 10.8333V6.5C21.1667 2.91604 18.2506 0 14.6667 0C11.0827 0 8.16666 2.91604 8.16666 6.5V10.8333C8.16666 14.4173 11.0827 17.3333 14.6667 17.3333ZM11.0556 6.5C11.0556 4.50895 12.6756 2.88889 14.6667 2.88889C16.6577 2.88889 18.2778 4.50895 18.2778 6.5V10.8333C18.2778 12.8244 16.6577 14.4444 14.6667 14.4444C12.6756 14.4444 11.0556 12.8244 11.0556 10.8333V6.5Z" fill="#A56EF4"/>
<path d="M15.3889 31.0555C15.3889 31.8532 16.0356 32.5 16.8333 32.5H21.8889C22.6866 32.5 23.3333 31.8532 23.3333 31.0555C23.3333 30.2578 22.6866 29.6111 21.8889 29.6111H16.8333C16.0356 29.6111 15.3889 30.2578 15.3889 31.0555Z" fill="#A56EF4"/>
<path d="M36.3333 29.6111C35.5356 29.6111 34.8889 30.2578 34.8889 31.0555C34.8889 31.8532 35.5356 32.5 36.3333 32.5H37.7778C38.5755 32.5 39.2222 31.8532 39.2222 31.0555C39.2222 30.2578 38.5755 29.6111 37.7778 29.6111H36.3333Z" fill="#A56EF4"/>
<path d="M23.6327 15.058C22.8908 14.7653 22.0518 15.1293 21.7588 15.8712C21.4661 16.6136 21.83 17.4525 22.572 17.7452C24.7894 18.6201 26.2222 20.7265 26.2222 23.1111V36.1111H3.11111V23.1111C3.11111 20.7265 4.54392 18.6201 6.76136 17.7452C7.50334 17.4525 7.86727 16.6136 7.57457 15.8712C7.28152 15.1296 6.44292 14.7636 5.7006 15.058C2.37267 16.3713 0.222221 19.5324 0.222221 23.1111V37.5555C0.222221 38.3532 0.868977 39 1.66667 39H27.6667C28.4644 39 29.1111 38.3532 29.1111 37.5555V23.1111C29.1111 19.5324 26.9607 16.3713 23.6327 15.058Z" fill="#A56EF4"/>
<path d="M39.2222 14.4444V11.5555C39.2222 8.36973 36.6303 5.77777 33.4444 5.77777C30.2586 5.77777 27.6667 8.36973 27.6667 11.5555V14.4444C27.6667 17.6303 30.2586 20.2222 33.4444 20.2222C36.6303 20.2222 39.2222 17.6303 39.2222 14.4444ZM30.5556 14.4444V11.5555C30.5556 9.96264 31.8515 8.66666 33.4444 8.66666C35.0374 8.66666 36.3333 9.96264 36.3333 11.5555V14.4444C36.3333 16.0373 35.0374 17.3333 33.4444 17.3333C31.8515 17.3333 30.5556 16.0373 30.5556 14.4444Z" fill="#A56EF4"/>
<path d="M41.5144 18.9308C40.8687 18.4632 39.9656 18.6071 39.4973 19.2531C39.0293 19.8992 39.1736 20.8023 39.8196 21.2703C41.2545 22.3095 42.1111 23.9864 42.1111 25.7553V36.1111H32.7222C31.9245 36.1111 31.2778 36.7579 31.2778 37.5556C31.2778 38.3532 31.9245 39 32.7222 39H43.5556C44.3532 39 45 38.3532 45 37.5556V25.7553C45 23.0628 43.697 20.5117 41.5144 18.9308Z" fill="#A56EF4"/>
</svg>
