<svg width="33" height="47" viewBox="0 0 33 47" fill="none" xmlns="http://www.w3.org/2000/svg">
<path d="M5.69252 4.87664C6.22024 5.26627 6.65846 5.58847 7.14702 5.95C7.31298 5.65029 7.45284 5.37867 7.60948 5.11641C8.66492 3.3668 10.1642 2.27845 12.2154 2.03118C13.9869 1.81763 15.667 1.31186 17.1961 0.382729C18.1621 -0.203596 19.0124 -0.124919 19.7844 0.678701C20.3624 1.28189 20.9834 1.86446 21.4515 2.5482C22.0351 3.4024 22.7903 3.56911 23.6202 3.20009C24.4817 2.81607 25.0616 3.08394 25.677 3.66278C27.8251 5.684 28.9906 8.25597 29.0186 11.1108C29.0447 13.8401 29.7291 16.4458 29.9211 19.1264C29.992 20.1173 29.9528 21.1176 30.0666 22.1011C30.1132 22.4964 30.3407 22.989 30.6484 23.2175C34.1019 25.7727 33.6842 30.5962 29.8391 32.5425C29.5071 32.7093 29.2051 33.1045 29.0689 33.4623C28.31 35.4573 27.6499 37.4898 26.8741 39.4773C25.539 42.8922 23.4467 45.5747 19.7284 46.5975C15.2773 47.8207 10.9157 46.2135 8.39267 42.3546C7.83697 41.5041 7.37825 40.5731 6.99225 39.6309C6.15684 37.6003 5.41281 35.5322 4.58859 33.4979C4.46925 33.2057 4.15224 32.8872 3.85761 32.7898C1.59755 32.0349 0.245608 30.482 0.027433 28.1311C-0.190742 25.7708 0.901997 24.0193 2.9644 22.8523C3.23665 22.6987 3.47161 22.2791 3.51823 21.955C3.84829 19.6265 4.17089 17.2962 4.40212 14.9566C4.55503 13.4149 4.48976 11.8488 4.64267 10.3072C4.78999 8.83105 5.08275 7.36992 5.33636 5.90692C5.3923 5.58098 5.5508 5.27751 5.69252 4.87664ZM28.3697 22.5394C28.2447 19.7015 28.2783 16.9722 27.1501 14.4058C27.0662 14.2147 26.9431 13.9637 26.7772 13.9019C25.4383 13.3924 24.0807 12.9334 22.74 12.4277C22.464 12.3228 22.1433 12.1467 21.9997 11.9088C20.2673 9.00339 17.7611 7.01775 14.7309 5.63155C14.1827 5.38054 13.6307 5.19883 13.31 5.88819C12.9837 6.58878 13.53 6.84541 14.0316 7.15075C15.35 7.9525 16.6908 8.72989 17.9252 9.65153C19.059 10.4982 19.9522 11.6091 20.6161 12.9072C19.7284 13.4842 19.1317 13.4842 18.3224 12.733C17.0637 11.5622 15.5943 10.6125 14.1603 9.65153C13.9272 9.49418 13.4126 9.7583 13.0284 9.82949C13.1272 10.236 13.1627 10.6743 13.3473 11.0359C13.4554 11.2457 13.8135 11.315 14.0391 11.4779C15.1318 12.2647 16.2171 13.0608 17.5001 13.9956C16.9854 14.1511 16.7654 14.2335 16.5379 14.2822C15.2214 14.5557 14.041 14.1155 12.8755 13.5741C11.6075 12.9859 10.3152 12.4352 8.87377 12.6281C8.12414 12.7274 7.31485 12.7724 6.87663 13.5797C5.36806 16.3596 5.31025 19.3755 5.31211 22.4514C8.58847 22.1198 11.7156 21.9868 14.8503 22.693C16.0195 22.9572 17.3173 22.9609 18.5033 22.7624C21.3638 22.2828 24.2225 22.2416 27.0998 22.4027C27.4858 22.4252 27.8699 22.4851 28.3697 22.5394ZM10.043 37.1039C12.4019 32.743 21.1065 32.4882 23.76 37.0571C24.4686 36.1223 25.1474 35.21 25.8448 34.3128C26.4322 33.5541 27.1576 32.8741 27.5995 32.0405C27.896 31.4823 28.1776 31.2294 28.7706 31.0739C30.199 30.6974 31.191 29.3206 31.2451 27.822C31.3029 26.2297 30.4115 24.8417 28.9925 24.3153C28.0471 23.965 27.7319 24.1954 27.6032 25.1751C27.5063 25.9057 27.3403 26.64 27.0904 27.3312C26.6597 28.5226 25.8131 29.2887 24.5264 29.4873C23.9465 29.5772 23.3703 29.699 22.7866 29.7439C20.0361 29.9537 18.6655 29.1295 17.5336 26.5969C17.2632 25.9918 17.0376 25.368 16.7076 24.5476C16.3663 25.3961 16.1332 26.0518 15.8423 26.6812C14.7067 29.1351 13.3976 29.92 10.7143 29.7458C10.1008 29.7065 9.49287 29.5753 8.88309 29.4835C7.55353 29.2831 6.69016 28.487 6.29297 27.245C5.98342 26.2822 5.82119 25.2706 5.54894 24.0811C5.0007 24.1748 4.34431 24.171 3.78489 24.4052C2.28937 25.0327 1.53601 26.5988 1.78961 28.3221C2.00965 29.8263 3.29446 31.0084 4.96527 31.2687C5.25058 31.3137 5.63098 31.3324 5.78949 31.5179C6.38434 32.2185 6.89714 32.9884 7.45284 33.7227C8.29197 34.826 9.14043 35.9256 10.043 37.1039ZM7.54607 24.0212C7.61507 24.585 7.66355 25.0402 7.72882 25.4954C7.99734 27.3612 8.55677 27.8782 10.4364 27.9625C10.9921 27.9868 11.5665 28.0449 12.0979 27.9344C12.5529 27.8388 13.1198 27.6309 13.3585 27.2806C13.9179 26.4564 14.3114 25.516 14.8391 24.4895C12.3329 23.832 10.0318 23.6465 7.54607 24.0212ZM18.8073 24.2965C19.279 27.4211 20.8137 28.4458 23.7731 27.8726C25.2891 27.5785 26.1059 25.9562 25.6266 23.8938C23.4057 24.0249 21.1494 24.1598 18.8073 24.2965ZM12.8419 38.4376C14.5929 39.3986 19.6016 39.378 20.8566 38.4114C19.5998 37.9 18.3131 37.3755 17.0208 36.8622C16.9257 36.8248 16.7821 36.8585 16.6759 36.8997C15.4097 37.4036 14.1435 37.915 12.8419 38.4376Z" fill="#65A3FB"/>
</svg>
