<svg width="38" height="40" viewBox="0 0 38 40" fill="none" xmlns="http://www.w3.org/2000/svg">
<path d="M37.0233 15.36L35.6467 6.41332C35.5862 6.01993 35.3869 5.66117 35.0849 5.40195C34.7828 5.14272 34.398 5.00013 34 4.99998C24.8883 4.99998 20.2183 0.52665 20.1783 0.488317C19.8661 0.177898 19.4436 0.00366211 19.0033 0.00366211C18.563 0.00366211 18.1406 0.177898 17.8283 0.488317C17.7817 0.52665 13.1117 4.99998 4 4.99998C3.60198 5.00013 3.21716 5.14272 2.91514 5.40195C2.61312 5.66117 2.41383 6.01993 2.35333 6.41332L0.976667 15.36C0.359195 19.4241 1.00553 23.5798 2.82816 27.2644C4.65079 30.949 7.56167 33.9846 11.1667 35.96L18.2 39.7933C18.4449 39.9269 18.7194 39.997 18.9983 39.997C19.2773 39.997 19.5518 39.9269 19.7967 39.7933L26.83 35.96C30.4356 33.985 33.3472 30.9497 35.1704 27.2651C36.9937 23.5804 37.6405 19.4245 37.0233 15.36ZM25.2367 33.0266L19 36.435L12.7633 33.0333C9.75788 31.3881 7.33063 28.8589 5.81027 25.7884C4.28991 22.7179 3.74989 19.2543 4.26333 15.8666L5.43 8.29832C10.2962 8.18936 15.0199 6.63509 19 3.83332C22.9785 6.63474 27.7004 8.18955 32.565 8.29998L33.7317 15.8666C34.2456 19.2537 33.7063 22.7169 32.1868 25.7874C30.6674 28.8579 28.2412 31.3873 25.2367 33.0333V33.0266Z" fill="#62FF96"/>
<path d="M24.4883 13.8217L15.6667 22.6433L13.5117 20.4883C13.3579 20.3292 13.174 20.2022 12.9707 20.1148C12.7673 20.0275 12.5486 19.9815 12.3273 19.9796C12.106 19.9777 11.8866 20.0198 11.6817 20.1036C11.4769 20.1874 11.2908 20.3112 11.1343 20.4677C10.9779 20.6242 10.8541 20.8103 10.7703 21.0151C10.6865 21.2199 10.6443 21.4394 10.6462 21.6607C10.6482 21.882 10.6941 22.1007 10.7815 22.304C10.8688 22.5074 10.9958 22.6913 11.155 22.845L14.4883 26.1783C14.8009 26.4908 15.2247 26.6663 15.6667 26.6663C16.1086 26.6663 16.5325 26.4908 16.845 26.1783L26.845 16.1783C27.1486 15.864 27.3166 15.443 27.3128 15.006C27.309 14.569 27.1337 14.151 26.8247 13.842C26.5157 13.533 26.0977 13.3577 25.6607 13.3539C25.2237 13.3501 24.8027 13.5181 24.4883 13.8217Z" fill="#62FF96"/>
</svg>
